<mxfile host="app.diagrams.net" modified="2021-02-18T11:40:41.759Z" agent="5.0 (Macintosh; Intel Mac OS X 10_14_6) AppleWebKit/537.36 (KHTML, like Gecko) Chrome/83.0.4103.116 Safari/537.36" etag="d7vnHe4b6jYgR5xew8m9" version="14.2.6" type="github">
  <diagram name="Page-1" id="edf60f1a-56cd-e834-aa8a-f176f3a09ee4">
    <mxGraphModel dx="946" dy="488" grid="1" gridSize="10" guides="1" tooltips="1" connect="1" arrows="1" fold="1" page="1" pageScale="1" pageWidth="1100" pageHeight="850" background="#ffffff" math="0" shadow="0">
      <root>
        <mxCell id="0" />
        <mxCell id="1" parent="0" />
        <mxCell id="pApcV22JbSdi80a_16nG-32" value="" style="edgeStyle=orthogonalEdgeStyle;rounded=0;orthogonalLoop=1;jettySize=auto;html=1;" edge="1" parent="1" source="pApcV22JbSdi80a_16nG-1" target="pApcV22JbSdi80a_16nG-31">
          <mxGeometry relative="1" as="geometry" />
        </mxCell>
        <mxCell id="pApcV22JbSdi80a_16nG-1" value="query" style="rounded=0;whiteSpace=wrap;html=1;" vertex="1" parent="1">
          <mxGeometry x="180" y="20" width="120" height="40" as="geometry" />
        </mxCell>
        <mxCell id="pApcV22JbSdi80a_16nG-49" value="" style="edgeStyle=orthogonalEdgeStyle;rounded=0;orthogonalLoop=1;jettySize=auto;html=1;" edge="1" parent="1" source="pApcV22JbSdi80a_16nG-4" target="pApcV22JbSdi80a_16nG-48">
          <mxGeometry relative="1" as="geometry" />
        </mxCell>
        <mxCell id="pApcV22JbSdi80a_16nG-4" value="群组额外特征线上mongo库" style="whiteSpace=wrap;html=1;rounded=0;shadow=1;fontFamily=Verdana;fontSize=8;strokeWidth=1;" vertex="1" parent="1">
          <mxGeometry x="580" y="450" width="120" height="60" as="geometry" />
        </mxCell>
        <mxCell id="pApcV22JbSdi80a_16nG-10" value="" style="edgeStyle=orthogonalEdgeStyle;rounded=0;orthogonalLoop=1;jettySize=auto;html=1;" edge="1" parent="1" source="pApcV22JbSdi80a_16nG-8" target="pApcV22JbSdi80a_16nG-4">
          <mxGeometry relative="1" as="geometry">
            <mxPoint x="598" y="480" as="sourcePoint" />
            <Array as="points">
              <mxPoint x="640" y="370" />
              <mxPoint x="640" y="370" />
            </Array>
          </mxGeometry>
        </mxCell>
        <mxCell id="pApcV22JbSdi80a_16nG-8" value="&lt;span style=&quot;font-size: 8px&quot;&gt;infoflow-logsj&lt;br&gt;通过中间表中群组成员的uuap信息去关联群成员的部门信息然后做出部门分布统计后把用户画像和部门信息分别入库mongo&lt;br&gt;&lt;/span&gt;" style="whiteSpace=wrap;html=1;rounded=0;shadow=1;fontFamily=Verdana;fontSize=8;strokeWidth=1;" vertex="1" parent="1">
          <mxGeometry x="570" y="220" width="140" height="100" as="geometry" />
        </mxCell>
        <mxCell id="pApcV22JbSdi80a_16nG-18" value="" style="edgeStyle=orthogonalEdgeStyle;rounded=0;orthogonalLoop=1;jettySize=auto;html=1;" edge="1" parent="1" source="pApcV22JbSdi80a_16nG-11" target="pApcV22JbSdi80a_16nG-8">
          <mxGeometry relative="1" as="geometry" />
        </mxCell>
        <mxCell id="pApcV22JbSdi80a_16nG-11" value="hisearch mysql hisearch-group-index中间表" style="whiteSpace=wrap;html=1;rounded=0;shadow=1;fontFamily=Verdana;fontSize=8;strokeWidth=1;" vertex="1" parent="1">
          <mxGeometry x="510" y="40" width="110" height="60" as="geometry" />
        </mxCell>
        <mxCell id="pApcV22JbSdi80a_16nG-20" value="" style="edgeStyle=orthogonalEdgeStyle;rounded=0;orthogonalLoop=1;jettySize=auto;html=1;exitX=0.5;exitY=1;exitDx=0;exitDy=0;" edge="1" parent="1" source="pApcV22JbSdi80a_16nG-19" target="pApcV22JbSdi80a_16nG-8">
          <mxGeometry relative="1" as="geometry">
            <Array as="points">
              <mxPoint x="710" y="160" />
              <mxPoint x="640" y="160" />
            </Array>
          </mxGeometry>
        </mxCell>
        <mxCell id="pApcV22JbSdi80a_16nG-19" value="本地文件包含公司内所有员工的用户画像" style="whiteSpace=wrap;html=1;" vertex="1" parent="1">
          <mxGeometry x="650" y="40" width="120" height="60" as="geometry" />
        </mxCell>
        <mxCell id="pApcV22JbSdi80a_16nG-34" value="" style="edgeStyle=orthogonalEdgeStyle;rounded=0;orthogonalLoop=1;jettySize=auto;html=1;" edge="1" parent="1" source="pApcV22JbSdi80a_16nG-31" target="pApcV22JbSdi80a_16nG-33">
          <mxGeometry relative="1" as="geometry" />
        </mxCell>
        <mxCell id="pApcV22JbSdi80a_16nG-31" value="hisearch-query" style="whiteSpace=wrap;html=1;rounded=0;" vertex="1" parent="1">
          <mxGeometry x="180" y="90" width="120" height="40" as="geometry" />
        </mxCell>
        <mxCell id="pApcV22JbSdi80a_16nG-42" value="" style="edgeStyle=orthogonalEdgeStyle;rounded=0;orthogonalLoop=1;jettySize=auto;html=1;" edge="1" parent="1" source="pApcV22JbSdi80a_16nG-33">
          <mxGeometry relative="1" as="geometry">
            <mxPoint x="240" y="240" as="targetPoint" />
          </mxGeometry>
        </mxCell>
        <mxCell id="pApcV22JbSdi80a_16nG-47" value="" style="edgeStyle=orthogonalEdgeStyle;rounded=0;orthogonalLoop=1;jettySize=auto;html=1;" edge="1" parent="1" source="pApcV22JbSdi80a_16nG-33" target="pApcV22JbSdi80a_16nG-46">
          <mxGeometry relative="1" as="geometry" />
        </mxCell>
        <mxCell id="pApcV22JbSdi80a_16nG-33" value="hisearch-group-rerank（打包&lt;br&gt;&lt;span style=&quot;color: rgb(51 , 51 , 51) ; text-align: left ; background-color: rgb(255 , 255 , 255)&quot;&gt;&lt;font style=&quot;font-size: 12px&quot;&gt;上次发言时间，最近30天发言次数，最近60天发言次数，群组活跃时间，群组创建时间，c_score, score, 群规模， 高亮群名称， 高亮群成员名称，query特征&lt;/font&gt;&lt;/span&gt;&lt;span style=&quot;color: rgb(51 , 51 , 51) ; font-family: &amp;#34;arial&amp;#34; , sans-serif ; font-size: 14px ; text-align: left ; background-color: rgb(255 , 255 , 255)&quot;&gt;）&lt;br&gt;&lt;/span&gt;" style="whiteSpace=wrap;html=1;rounded=0;" vertex="1" parent="1">
          <mxGeometry x="180" y="160" width="120" height="170" as="geometry" />
        </mxCell>
        <mxCell id="pApcV22JbSdi80a_16nG-45" value="" style="edgeStyle=orthogonalEdgeStyle;rounded=0;orthogonalLoop=1;jettySize=auto;html=1;" edge="1" parent="1" source="pApcV22JbSdi80a_16nG-43" target="pApcV22JbSdi80a_16nG-33">
          <mxGeometry relative="1" as="geometry">
            <Array as="points">
              <mxPoint x="320" y="234" />
              <mxPoint x="320" y="234" />
            </Array>
          </mxGeometry>
        </mxCell>
        <mxCell id="pApcV22JbSdi80a_16nG-43" value="群组特征正排库（&lt;span style=&quot;color: rgb(51 , 51 , 51) ; text-align: left ; background-color: rgb(255 , 255 , 255)&quot;&gt;上次发言时间，最近30天发言次数，最近60天发言次数）&lt;/span&gt;" style="whiteSpace=wrap;html=1;rounded=0;" vertex="1" parent="1">
          <mxGeometry x="350" y="200" width="130" height="68.75" as="geometry" />
        </mxCell>
        <mxCell id="pApcV22JbSdi80a_16nG-52" value="" style="edgeStyle=orthogonalEdgeStyle;rounded=0;orthogonalLoop=1;jettySize=auto;html=1;" edge="1" parent="1" source="pApcV22JbSdi80a_16nG-46" target="pApcV22JbSdi80a_16nG-51">
          <mxGeometry relative="1" as="geometry" />
        </mxCell>
        <mxCell id="pApcV22JbSdi80a_16nG-46" value="http post" style="whiteSpace=wrap;html=1;rounded=0;" vertex="1" parent="1">
          <mxGeometry x="180" y="350" width="120" height="30" as="geometry" />
        </mxCell>
        <mxCell id="pApcV22JbSdi80a_16nG-50" value="" style="edgeStyle=orthogonalEdgeStyle;rounded=0;orthogonalLoop=1;jettySize=auto;html=1;entryX=1;entryY=0.5;entryDx=0;entryDy=0;" edge="1" parent="1" source="pApcV22JbSdi80a_16nG-48" target="pApcV22JbSdi80a_16nG-51">
          <mxGeometry relative="1" as="geometry" />
        </mxCell>
        <mxCell id="pApcV22JbSdi80a_16nG-48" value="群组额外特征和用户部门信息从mongo库定时增量（群组信息表有个字段表示是否更新）更新到内存当中" style="whiteSpace=wrap;html=1;rounded=0;shadow=1;fontFamily=Verdana;fontSize=8;strokeWidth=1;" vertex="1" parent="1">
          <mxGeometry x="380" y="432.5" width="120" height="95" as="geometry" />
        </mxCell>
        <mxCell id="pApcV22JbSdi80a_16nG-54" value="" style="edgeStyle=orthogonalEdgeStyle;rounded=0;orthogonalLoop=1;jettySize=auto;html=1;" edge="1" parent="1" source="pApcV22JbSdi80a_16nG-51" target="pApcV22JbSdi80a_16nG-53">
          <mxGeometry relative="1" as="geometry" />
        </mxCell>
        <mxCell id="pApcV22JbSdi80a_16nG-51" value="hisearch-rerank&lt;br&gt;（model_score)&lt;br&gt;根据原始特征经过一系列数据预处理后用处理好的特征喂入训练好的模型给出模型打分" style="whiteSpace=wrap;html=1;rounded=0;" vertex="1" parent="1">
          <mxGeometry x="145" y="430" width="190" height="100" as="geometry" />
        </mxCell>
        <mxCell id="pApcV22JbSdi80a_16nG-58" value="" style="edgeStyle=orthogonalEdgeStyle;rounded=0;orthogonalLoop=1;jettySize=auto;html=1;entryX=0.5;entryY=1;entryDx=0;entryDy=0;" edge="1" parent="1" source="pApcV22JbSdi80a_16nG-53" target="pApcV22JbSdi80a_16nG-59">
          <mxGeometry relative="1" as="geometry">
            <mxPoint x="70" y="260" as="targetPoint" />
            <Array as="points">
              <mxPoint x="70" y="600" />
            </Array>
          </mxGeometry>
        </mxCell>
        <mxCell id="pApcV22JbSdi80a_16nG-53" value="hisearch-rerank&lt;br&gt;（assemble)&lt;br&gt;根据模型分数和其他分数（或者规则）综合给分倒排" style="whiteSpace=wrap;html=1;rounded=0;" vertex="1" parent="1">
          <mxGeometry x="180" y="560" width="120" height="80" as="geometry" />
        </mxCell>
        <mxCell id="pApcV22JbSdi80a_16nG-62" value="" style="edgeStyle=orthogonalEdgeStyle;rounded=0;orthogonalLoop=1;jettySize=auto;html=1;" edge="1" parent="1" source="pApcV22JbSdi80a_16nG-59">
          <mxGeometry relative="1" as="geometry">
            <mxPoint x="179" y="238" as="targetPoint" />
            <Array as="points">
              <mxPoint x="70" y="238" />
            </Array>
          </mxGeometry>
        </mxCell>
        <mxCell id="pApcV22JbSdi80a_16nG-59" value="根据hisearch-rerank返回的群组顺序重排群组顺序返回结果" style="rounded=0;whiteSpace=wrap;html=1;" vertex="1" parent="1">
          <mxGeometry x="10" y="350" width="120" height="60" as="geometry" />
        </mxCell>
      </root>
    </mxGraphModel>
  </diagram>
</mxfile>
